<svg xmlns="http://www.w3.org/2000/svg" width="11" height="12" viewBox="0 0 11 12" fill="none">
  <path d="M5.5 0.00976562C2.46718 0.00976562 0 2.47732 0 5.51061C0 8.54389 2.46718 11.0114 5.5 11.0114C8.53282 11.0114 11 8.54389 11 5.51061C11 2.47732 8.53282 0.00976562 5.5 0.00976562ZM8.11572 8.35587C8.02634 8.44527 7.90902 8.49026 7.79169 8.49026C7.67437 8.49026 7.55696 8.44527 7.46767 8.35587L5.17597 6.06391C5.08978 5.97821 5.04169 5.86171 5.04169 5.73984V2.76019C5.04169 2.5067 5.24697 2.30181 5.5 2.30181C5.75303 2.30181 5.95831 2.5067 5.95831 2.76019V5.55006L8.11572 7.70772C8.2949 7.88701 8.2949 8.17667 8.11572 8.35587Z" fill="white"/>
</svg>