<svg xmlns="http://www.w3.org/2000/svg" width="9" height="10" viewBox="0 0 9 10" fill="none">
  <path d="M8.79822 8.02043L7.40832 6.63037C7.13147 6.35464 6.67301 6.36302 6.38653 6.64961L5.68628 7.34969C5.64204 7.32531 5.59625 7.29984 5.54811 7.27282C5.10591 7.02781 4.50069 6.69199 3.86383 6.05465C3.22507 5.41598 2.88894 4.80982 2.64317 4.36735C2.61724 4.32047 2.59239 4.27527 2.56785 4.23235L3.03782 3.76308L3.26887 3.53175C3.5558 3.24474 3.56371 2.78641 3.28751 2.50988L1.89761 1.11966C1.62141 0.843513 1.16274 0.851891 0.875815 1.1389L0.484091 1.53287L0.494796 1.5435C0.363446 1.7111 0.253686 1.9044 0.172005 2.11285C0.0967117 2.31127 0.0498342 2.50062 0.0283993 2.69035C-0.155129 4.21185 0.540148 5.60237 2.42704 7.48929C5.0353 10.0974 7.13721 9.90034 7.22789 9.89073C7.42538 9.86712 7.61465 9.81993 7.807 9.74523C8.01364 9.66451 8.20681 9.5549 8.37431 9.42384L8.38287 9.43144L8.77971 9.04284C9.06604 8.75589 9.07429 8.29741 8.79822 8.02043Z" fill="white"/>
</svg>